<svg xmlns="http://www.w3.org/2000/svg" version="1.1" xmlns:xlink="http://www.w3.org/1999/xlink" xmlns:svgjs="http://svgjs.dev/svgjs" width="2000" height="2250" viewBox="0 0 2000 2250"><g transform="matrix(1,0,0,1,0.00014687500004129106,0)"><svg viewBox="0 0 320 360" data-background-color="#ffffff" preserveAspectRatio="xMidYMid meet" height="2250" width="2000" xmlns="http://www.w3.org/2000/svg" xmlns:xlink="http://www.w3.org/1999/xlink"><g id="tight-bounds" transform="matrix(1,0,0,1,0.000023499999997511622,0)"><svg viewBox="0 0 320 360" height="360" width="320"><g><svg></svg></g><g><svg viewBox="0 0 320 360" height="360" width="320"><g><path transform="translate(-74.99272,-51.79039) scale(4.65793,4.65793)" d="M20.6 59.9l0.8 1-0.4-1.3c-0.1-0.6-0.8 0.1-0.4 0.3M21.5 59.3c0.3 0.5 0.6 1 0.6 1.5 0 0.7 0.6 1 1.1 1.2-0.7-0.8-1.1-3-1.7-2.7M59.9 16.9c1.7 0 3.3-0.2 5.1 0.2 4.4 1.1 8.1 3.3 10.6 6.4l7 11.2c0.3 2.8 0.9 5.9 0.8 9.3 0.7 0 0.6-1 1.4-1.2-0.8 2-1.2 4.5-1.4 7.4-0.5-1.6 0-4 0.1-5.3-0.7 1.1-1.1 0.3-1.1-0.2 0.1-0.8-0.3-0.7-0.6-1-1.1-1-1.8-2.1-2.6-3.8 0.5-1.3 0.6-3.2-1-4.2-0.5-0.3-1.1-0.8-1.4-1.6-0.4-1.1-1.1-2.4-0.9-4.1 0.1-0.5-1.5 1.1-2.4 0.4-3.9-2.7-7.8-5.8-12.5-8.4-2.5 0-4.3-0.9-5.2-2-0.8-1-0.2-2.3 1-2.4 0.7 0 1.5-0.2 2.1 0.2 0.1-0.4 0.5-0.9 1-0.9M50 14.6l0.2 0.1c1 0.2 1.5 1.6 2.6 1.1 0 0.7 0.1 1.4-0.1 1.9-0.3 0.8-1.2 0.8-1.9 0.8-6.7-0.4-10.6 2.4-14.7 4.8-1.1 0.7-2.3 1.2-3.2 2.1-4.3 4-9 7.7-10.1 15.1l-0.9 8.2c-0.1 0.9-1.1 1.8-0.9 2.9l0.7 4.9c-0.7-0.7-1.1 0.2-0.9 0.6 0.1 0.3 0.5 1.3 1.1 0.4 0.8 1.5 1.6 4.4 2.7 5.7 3.4 4 7.8 7.6 11.4 11.2 0.9-0.2 1.6-0.2 1.8-0.8 0.3 0.6-0.3 1.2-0.8 1.3 1.6 1 3.4 1.9 5.8 2.1 3.1 0.2 6 0.7 8.7 1.4 1.4-0.4 2.8-0.6 4.3-0.7 0.5 0 0.8-0.8 1.4-1l0.1-1c0.6 0.9 0.5-0.3 0.1-0.9 0.7 0.6 0.9 1.1 1.2 1.5 0-0.3 0.8-1.4 0.8-0.1l0.2-1.3c0.3-0.2 0.4 1.1 0.7 0.2 0.3-0.9 0.9-0.2 1.5-0.5-0.2 0.4-0.1 1.2 0.6 0.7l0.8-0.7c0.5 1.2 1.3 0.7 1.7 0.5 4.4-2.8 8.8-6.1 13-9.4l-0.1 1.3 0.5-1.6c0.5 0.5 0.9 0.1 1.1-0.2 0.6-1 1.4-2 2.7-2.9-1.6 4.3-3.5 7.7-5.9 10.5l-1 1.2c0 0.7-0.2 1.6-1 1.7-0.4 0.1-1.2-0.2-1.8 0.4-0.3 0.4 0.7 1.2-0.1 0.6-0.7-0.5-1.4 0-2.2 0.2-0.6 0.2 0.4 0.8 0.6 1.2 0.2 0.4 0.4 0.8 0.3 1.3l-1.1-1.2c-1.3 0.7-2.1 2-3.2 3-0.5 0.4-0.3 1.1-0.3 1.7-0.7 0-1.5-0.2-1.9 0.2-0.3 0.4-0.2 1-0.2 1.6-1-0.1-1.1-1.6-2-1.3-0.9 0.2-1.9 0.3-2.7 0.8 0.6 1.2-1 0.5-0.8 0.7-1.5-0.9-2.8-1.6-4.4-1-3.4-1.1-7.6-0.6-10.7-0.2 0-0.5 0.1-1-0.1-1.1-0.2 0.5-0.8 0.3-0.7 0.3-1.9-1.3-3.8-2.1-5.8-3.2-1.8 0.2-3.5-0.7-4-1.2-1.4-1.3-3-0.6-4.3-0.9-2.8-0.7-3.8-3.6-4.1-5.6-0.2-1-1-1.4-1.3-1.3-1.3-4.2-3.3-8-4.9-11.9-0.4-1-0.3-2-0.3-3.1 0.5 0.2 1 0.1 0.9-0.6-0.5-3.3-1.7-5.8-3-8.2 0.7-3.4 0.8-7.4 2.4-10.4 1.4-2.7 4-4.1 5.8-6.4 0.6-0.8 0.6-1.9 1.2-2.6 2-2 4-4.1 6.2-5.9 1-0.8 2.2 0 3.7-0.3 0.5-1.8 2.5-3.4 4.4-2.9 0.8 0.2 2.4-1.9 2.9-2.1 0.8-0.3 0.4 0.8 0.4 1.5 1.9-1.5 4.5-2.3 6.9-3.2" fill="#ffffff" fill-rule="nonzero" stroke="none" stroke-width="1" stroke-linecap="butt" stroke-linejoin="miter" stroke-miterlimit="10" stroke-dasharray="" stroke-dashoffset="0" font-family="none" font-weight="none" font-size="none" text-anchor="none" style="mix-blend-mode: normal" data-fill-palette-color="tertiary"></path></g><g transform="matrix(1,0,0,1,64.00000000000001,96.27732112485337)"><svg viewBox="0 0 191.99999999999997 167.44535775029325" height="167.44535775029325" width="191.99999999999997"><g><svg viewBox="0 0 192.00000000000003 167.44535775029328" height="167.44535775029325" width="191.99999999999997"><g transform="matrix(1,0,0,1,0,101.40053268736669)"><svg viewBox="0 0 192.00000000000003 66.04482506292658" height="66.04482506292658" width="192.00000000000003"><g><svg viewBox="0 0 192.00000000000003 66.04482506292658" height="66.04482506292658" width="192.00000000000003"><g><svg viewBox="0 0 192.00000000000003 42.89544235924933" height="42.89544235924933" width="192.00000000000003"><g transform="matrix(1,0,0,1,0,0)"><svg width="192.00000000000003" viewBox="4.15 -37.1 167.84 37.5" height="42.89544235924933" data-palette-color="#ee3e38"><path d="M4.15 0L4.15-35 20.05-35Q25.75-35 30.13-32.83 34.5-30.65 36.93-26.7 39.35-22.75 39.35-17.5L39.35-17.5Q39.35-12.25 36.93-8.3 34.5-4.35 30.13-2.18 25.75 0 20.05 0L20.05 0 4.15 0ZM12.25-6.65L19.65-6.65Q24.9-6.65 28.03-9.58 31.15-12.5 31.15-17.5L31.15-17.5Q31.15-22.5 28.03-25.43 24.9-28.35 19.65-28.35L19.65-28.35 12.25-28.35 12.25-6.65ZM44.1-10.95L44.1-17.2 58.25-17.2 58.25-10.95 44.1-10.95ZM91.4-28.5L73.05-28.5 73.05-19.25 89.25-19.25 89.25-12.75 73.05-12.75 73.05 0 64.95 0 64.95-35 91.4-35 91.4-28.5ZM97.69-20.8L97.19-35 103.84-35 103.29-20.8 97.69-20.8ZM129.44-37.1L137.24-37.1 137.24 0 129.79 0 129.79-3.1Q126.89 0.4 121.39 0.4L121.39 0.4Q117.59 0.4 114.52-1.3 111.44-3 109.69-6.15 107.94-9.3 107.94-13.45L107.94-13.45Q107.94-17.6 109.69-20.75 111.44-23.9 114.52-25.6 117.59-27.3 121.39-27.3L121.39-27.3Q126.54-27.3 129.44-24.05L129.44-24.05 129.44-37.1ZM122.74-6Q125.69-6 127.64-8.03 129.59-10.05 129.59-13.45L129.59-13.45Q129.59-16.85 127.64-18.88 125.69-20.9 122.74-20.9L122.74-20.9Q119.74-20.9 117.79-18.88 115.84-16.85 115.84-13.45L115.84-13.45Q115.84-10.05 117.79-8.03 119.74-6 122.74-6L122.74-6ZM157.24 0.4Q152.99 0.4 149.61-1.38 146.24-3.15 144.34-6.3 142.44-9.45 142.44-13.45L142.44-13.45Q142.44-17.45 144.34-20.6 146.24-23.75 149.61-25.53 152.99-27.3 157.24-27.3L157.24-27.3Q161.49-27.3 164.84-25.53 168.19-23.75 170.09-20.6 171.99-17.45 171.99-13.45L171.99-13.45Q171.99-9.45 170.09-6.3 168.19-3.15 164.84-1.38 161.49 0.4 157.24 0.4L157.24 0.4ZM157.24-6Q160.24-6 162.16-8.03 164.09-10.05 164.09-13.45L164.09-13.45Q164.09-16.85 162.16-18.88 160.24-20.9 157.24-20.9L157.24-20.9Q154.24-20.9 152.29-18.88 150.34-16.85 150.34-13.45L150.34-13.45Q150.34-10.05 152.29-8.03 154.24-6 157.24-6L157.24-6Z" opacity="1" transform="matrix(1,0,0,1,0,0)" fill="#ffffff" class="undefined-text-0" data-fill-palette-color="primary" id="text-0"></path></svg></g></svg></g><g transform="matrix(1,0,0,1,36.672000000000004,53.02202680965148)"><svg viewBox="0 0 118.65600000000002 13.022798253275111" height="13.022798253275111" width="118.65600000000002"><g transform="matrix(1,0,0,1,0,0)"><svg width="118.65600000000002" viewBox="4 -37.5 343.46 37.7" height="13.022798253275111" data-palette-color="#ee3e38"><path d="M4 0L4-35 13-35Q23.5-35 26.7-26.2L26.7-26.2Q27.9-23 27.9-17.78 27.9-12.55 26.75-8.97 25.6-5.4 23.5-3.4 21.4-1.4 18.43-0.7 15.45 0 11.75 0L11.75 0 4 0ZM12.75-32.25L7.4-32.25 7.4-2.75 11.5-2.75Q14.1-2.75 16.5-3.2L16.5-3.2Q24.5-4.6 24.5-18.05L24.5-18.05Q24.5-25.6 21-29.2L21-29.2Q17.95-32.25 12.75-32.25L12.75-32.25ZM33.2-25L36.45-25.25 36.45 0 33.2 0 33.2-25ZM34.7-31.7Q33.7-31.7 33.17-32.35 32.65-33 32.65-34 32.65-35 33.22-35.63 33.8-36.25 34.8-36.25 35.8-36.25 36.42-35.63 37.05-35 37.05-33.9 37.05-32.8 36.37-32.25 35.7-31.7 34.7-31.7ZM46.8 0L43.55 0 43.55-37.25 46.8-37.5 46.8 0ZM66.54-24.5L65.74-21.7Q63.94-22.3 60.84-22.3 57.74-22.3 56.04-21.2 54.34-20.1 54.34-18.48 54.34-16.85 55.34-16.1 56.34-15.35 57.84-14.83 59.34-14.3 61.12-13.8 62.89-13.3 64.39-12.5L64.39-12.5Q67.89-10.7 67.89-7.15 67.89-3.6 65.47-1.7 63.04 0.2 58.39 0.2L58.39 0.2Q56.04 0.2 53.87-0.28 51.69-0.75 50.54-1.6L50.54-1.6 51.64-4.25Q52.79-3.25 56.29-2.8L56.29-2.8Q57.39-2.65 58.54-2.65L58.54-2.65Q61.14-2.65 62.89-3.73 64.64-4.8 64.64-7L64.64-7Q64.64-8.5 63.64-9.35 62.64-10.2 61.14-10.78 59.64-11.35 57.87-11.8 56.09-12.25 54.59-12.98 53.09-13.7 52.09-14.88 51.09-16.05 51.09-18.05L51.09-18.05Q51.09-21.3 53.59-23.25 56.09-25.2 60.29-25.2L60.29-25.2Q61.34-25.2 62.44-25.08 63.54-24.95 64.44-24.85L64.44-24.85 66.54-24.5ZM75.54-37.5L75.54-22.15Q79.49-25 83.14-25.15L83.14-25.15Q86.24-25.15 87.89-24.4 89.54-23.65 90.59-22.28 91.64-20.9 91.64-18.4L91.64-18.4 91.64 0 88.39 0 88.39-17.55Q88.39-19.4 87.59-20.4L87.59-20.4Q85.99-22.25 82.69-22.25L82.69-22.25Q79.44-22.1 75.54-20.15L75.54-20.15 75.54 0 72.29 0 72.29-37.25 75.54-37.5ZM97.09-19.9L96.19-22.3Q101.64-25 105.74-25.15L105.74-25.15Q108.99-25.15 110.76-24.33 112.54-23.5 113.64-22.03 114.74-20.55 114.74-17.9L114.74-17.9 114.74 0 111.49 0 111.49-1.9Q104.64 0.2 102.69 0.2L102.69 0.2Q102.59 0.2 102.54 0.2L102.54 0.2Q98.04 0.2 96.39-2.55L96.39-2.55Q95.79-3.55 95.71-4.5 95.64-5.45 95.64-6.1L95.64-6.1Q95.64-7.9 97.04-9.33 98.44-10.75 100.39-11.25L100.39-11.25Q103.69-12.1 111.49-12.75L111.49-12.75 111.49-16.8Q111.49-22.25 105.79-22.25L105.79-22.25Q101.79-22.25 97.09-19.9L97.09-19.9ZM98.69-5.7L98.69-5.7Q98.69-2.1 103.64-2.1L103.64-2.1Q107.59-2.1 111.49-3.8L111.49-3.8 111.49-10.95Q103.69-9.85 101.84-9.25L101.84-9.25Q98.69-8.25 98.69-5.7ZM122.99-25.25L122.99-22.25Q126.74-25 130.09-25.15L130.09-25.15Q133.14-25.15 134.79-24.4 136.44-23.65 137.51-22.28 138.59-20.9 138.59-18.4L138.59-18.4 138.59 0 135.34 0 135.34-17.55Q135.34-19.4 134.54-20.4L134.54-20.4Q132.94-22.25 129.64-22.25L129.64-22.25Q126.49-22.1 122.99-20.2L122.99-20.2 122.99 0 119.74 0 119.74-25 122.99-25.25ZM179.23-35L178.98-32 164.43-32 164.43-18.85 177.93-18.85 177.68-15.85 164.43-15.85 164.43 0 161.03 0 161.03-35 179.23-35ZM185.98-12.3L185.98-11.5Q185.98-2.7 194.38-2.7L194.38-2.7Q197.93-2.7 200.88-3.65L200.88-3.65Q201.63-3.9 201.93-4.05L201.93-4.05 202.68-1.4Q200.93-0.35 196.33 0.1L196.33 0.1Q195.03 0.2 193.58 0.2L193.58 0.2Q189.38 0.2 186.58-1.9L186.58-1.9Q182.73-4.75 182.73-11.4 182.73-18.05 186.2-21.63 189.68-25.2 194.63-25.2 199.58-25.2 202.08-22L202.08-22Q203.98-19.45 203.98-15.25L203.98-15.25Q203.98-14.25 203.88-13.15L203.88-13.15 186.03-13.15Q185.98-12.75 185.98-12.3L185.98-12.3ZM194.83-22.1L194.83-22.1Q191.73-22.1 189.53-20.23 187.33-18.35 186.48-15.4L186.48-15.4 201.03-15.4Q200.78-20.95 196.73-21.85L196.73-21.85Q195.83-22.1 194.83-22.1ZM222.63-24.5L221.33-21.5Q220.53-21.95 219.63-21.95 218.73-21.95 218.63-21.9L218.63-21.9Q216.73-21.9 214.8-20.53 212.88-19.15 211.53-17.45L211.53-17.45 211.53 0 208.28 0 208.28-25 211.53-25.25 211.53-19.65Q213.38-22 214.68-22.95L214.68-22.95Q217.08-24.75 219.28-24.85L219.28-24.85Q219.58-24.9 220.38-24.9 221.18-24.9 222.63-24.5L222.63-24.5ZM228.37-25.25L228.37-22.25Q232.12-25 235.47-25.15L235.47-25.15Q238.52-25.15 240.17-24.4 241.82-23.65 242.9-22.28 243.97-20.9 243.97-18.4L243.97-18.4 243.97 0 240.72 0 240.72-17.55Q240.72-19.4 239.92-20.4L239.92-20.4Q238.32-22.25 235.02-22.25L235.02-22.25Q231.87-22.1 228.37-20.2L228.37-20.2 228.37 0 225.12 0 225.12-25 228.37-25.25ZM250.92-19.9L250.02-22.3Q255.47-25 259.57-25.15L259.57-25.15Q262.82-25.15 264.6-24.33 266.37-23.5 267.47-22.03 268.57-20.55 268.57-17.9L268.57-17.9 268.57 0 265.32 0 265.32-1.9Q258.47 0.2 256.52 0.2L256.52 0.2Q256.42 0.2 256.37 0.2L256.37 0.2Q251.87 0.2 250.22-2.55L250.22-2.55Q249.62-3.55 249.55-4.5 249.47-5.45 249.47-6.1L249.47-6.1Q249.47-7.9 250.87-9.33 252.27-10.75 254.22-11.25L254.22-11.25Q257.52-12.1 265.32-12.75L265.32-12.75 265.32-16.8Q265.32-22.25 259.62-22.25L259.62-22.25Q255.62-22.25 250.92-19.9L250.92-19.9ZM252.52-5.7L252.52-5.7Q252.52-2.1 257.47-2.1L257.47-2.1Q261.42-2.1 265.32-3.8L265.32-3.8 265.32-10.95Q257.52-9.85 255.67-9.25L255.67-9.25Q252.52-8.25 252.52-5.7ZM276.82-25.25L276.82-22.25Q280.57-25 283.92-25.15L283.92-25.15Q286.97-25.15 288.62-24.4 290.27-23.65 291.34-22.28 292.42-20.9 292.42-18.4L292.42-18.4 292.42 0 289.17 0 289.17-17.55Q289.17-19.4 288.37-20.4L288.37-20.4Q286.77-22.25 283.47-22.25L283.47-22.25Q280.32-22.1 276.82-20.2L276.82-20.2 276.82 0 273.57 0 273.57-25 276.82-25.25ZM310.32-25.25L310.32-25.25Q313.27-25.25 315.92-23.5L315.92-23.5 315.92-37.25 319.17-37.5 319.17-1.15 318.92-1.15Q317.37-0.5 313.74-0.15 310.12 0.2 308.72 0.2L308.72 0.2Q304.52 0.2 301.77-1.9L301.77-1.9Q297.92-4.8 297.92-11.45 297.92-18.1 301.49-21.68 305.07-25.25 310.32-25.25ZM315.92-3.2L315.92-21.35Q313.42-22.3 311.02-22.3L311.02-22.3Q306.42-22.3 303.79-19.5 301.17-16.7 301.17-11.55 301.17-6.4 304.02-4.3L304.02-4.3Q306.07-2.7 309.19-2.7 312.32-2.7 315.92-3.2L315.92-3.2ZM324.61-6.4L324.61-6.4Q323.71-8.8 323.71-12L323.71-12Q323.71-18.15 327.16-21.68 330.61-25.2 335.81-25.2L335.81-25.2Q343.96-25.2 346.51-18.6L346.51-18.6Q347.46-16.2 347.46-13L347.46-13Q347.46-6.85 344.01-3.33 340.56 0.2 335.36 0.2L335.36 0.2Q327.21 0.2 324.61-6.4ZM326.96-12.35Q326.96-7.75 329.34-5.23 331.71-2.7 335.46-2.7 339.21-2.7 341.71-5.38 344.21-8.05 344.21-12.65 344.21-17.25 341.86-19.78 339.51-22.3 335.74-22.3 331.96-22.3 329.46-19.63 326.96-16.95 326.96-12.35Z" opacity="1" transform="matrix(1,0,0,1,0,0)" fill="#ffffff" class="undefined-text-1" data-fill-palette-color="secondary" id="text-1"></path></svg></g></svg></g></svg></g></svg></g><g transform="matrix(1,0,0,1,56.469697516053884,0)"><svg viewBox="0 0 79.06060496789226 91.27394823696454" height="91.27394823696454" width="79.06060496789226"><g><svg xmlns="http://www.w3.org/2000/svg" data-name="Layer 1" viewBox="18.319962741419626 4.161601338733494 63.34003725858037 91.67839866126651" x="8.000000000000004" y="0" height="91.27394823696454" width="63.06060496789225" class="icon-icon-0" data-fill-palette-color="accent" id="icon-0"><path d="M76.61 65.1l1.19-7.78a1.64 1.64 0 0 0 0-0.23 4.28 4.28 0 0 0-4.28-4.27H63.07A5.74 5.74 0 0 1 59.44 46 17.84 17.84 0 0 0 67.73 33.9c1.39-2.62 6.66-13.66 0.61-20.57-0.46-0.53-7.56-8.78-17.44-9.16C45.19 4 39.77 6.41 34.8 11.47a13 13 0 0 0-5.45 7.72c-0.79 3.6 0.19 7.47 2.87 11.51a17.87 17.87 0 0 0 8.55 15.21 5.77 5.77 0 0 1-3.62 6.91H26.33a4.28 4.28 0 0 0-4.27 4.27 0.86 0.86 0 0 0 0 0.23l1.21 8a26.51 26.51 0 0 0-4.95 15.47V91.34a4.51 4.51 0 0 0 4.5 4.5H77.16a4.51 4.51 0 0 0 4.5-4.5V80.76C81.66 74.48 80 69.48 76.61 65.1ZM32.28 19.87a10.06 10.06 0 0 1 4.23-5.93 1.54 1.54 0 0 0 0.32-0.25C41.21 9.19 45.9 7 50.76 7.17c8.66 0.32 15.22 8 15.29 8.1l0 0c4.29 4.88 0.93 13.23-0.54 16.3a4.58 4.58 0 0 1-0.33-0.46 1.62 1.62 0 0 0-0.1-0.18l-0.23-0.42c0-0.08-0.08-0.18-0.12-0.27a4 4 0 0 1-0.2-0.46 3.24 3.24 0 0 1-0.13-0.33L64.24 29c0-0.13-0.07-0.26-0.11-0.39A5.44 5.44 0 0 1 64 28c0-0.14-0.07-0.28-0.1-0.42l-0.12-0.75-0.06-0.41c-0.05-0.4-0.09-0.82-0.11-1.27a5.7 5.7 0 0 0-2.12-4.2 5.89 5.89 0 0 0-0.71-0.48l-0.15-0.08a5.7 5.7 0 0 0-0.76-0.34l-0.12 0a6.93 6.93 0 0 0-0.75-0.2l-0.12 0a4.54 4.54 0 0 0-0.82-0.07h-0.18a6 6 0 0 0-0.84 0.07c-7.09 1.21-18.69 0.51-18.8 0.5a1.5 1.5 0 0 0-1.59 1.63A15.18 15.18 0 0 1 35.39 30L35 29.43C32.56 26 31.65 22.74 32.28 19.87Zm3.33 14.21h0a1.73 1.73 0 0 0 0.46-0.12l0.06 0a1.73 1.73 0 0 0 0.41-0.3c0.14-0.15 3.22-3.46 3.12-10.3 3.56 0.16 12 0.37 17.82-0.62a2.53 2.53 0 0 1 2.06 0.54 2.77 2.77 0 0 1 1 2c0 0.27 0 0.54 0 0.81l0 0.25 0.06 0.56c0 0.1 0 0.2 0 0.29s0.05 0.36 0.08 0.54a2.74 2.74 0 0 1 0.05 0.28l0.12 0.57a1.74 1.74 0 0 1 0.05 0.22c0.07 0.27 0.13 0.53 0.21 0.78v0.05c0.07 0.24 0.15 0.47 0.23 0.7 0 0.07 0.05 0.14 0.08 0.22s0.12 0.34 0.19 0.5l0.1 0.24 0.21 0.46c0 0.07 0.07 0.14 0.1 0.22l0.26 0.47 0.09 0.15c0.12 0.2 0.24 0.39 0.37 0.58l0.06 0.07c0.11 0.15 0.23 0.3 0.34 0.43l0.14 0.15q0.15 0.16 0.3 0.3l0.16 0.14a2.34 2.34 0 0 0 0.31 0.24l0.17 0.12 0.08 0.06a14.85 14.85 0 0 1-6.87 8.93 1.26 1.26 0 0 0-0.45 0.26 14.93 14.93 0 0 1-21.57-9.75Zm8.32 13.38a17.76 17.76 0 0 0 12.36 0 8.58 8.58 0 0 0 1.83 5.32h-16A8.58 8.58 0 0 0 43.93 47.46Zm-17.6 8.36H73.54A1.28 1.28 0 0 1 74.81 57L70.44 85.71a0.82 0.82 0 0 0 0 0.22 1.27 1.27 0 0 1-1.27 1.28H30.73a1.27 1.27 0 0 1-1.27-1.28 1.64 1.64 0 0 0 0-0.22L25.06 57A1.28 1.28 0 0 1 26.33 55.82Zm-5 35.52V80.76A23.53 23.53 0 0 1 24 69.86l2.47 16.2a4 4 0 0 0 0.21 1.15h-0.79A2.78 2.78 0 0 0 23.1 90v2.85h-0.26A1.5 1.5 0 0 1 21.34 91.34Zm4.76 1.5V90.21H73v2.63Zm52.56-1.5a1.5 1.5 0 0 1-1.5 1.5H76V90a2.78 2.78 0 0 0-2.76-2.78 4 4 0 0 0 0.22-1.15L76 69.44a22 22 0 0 1 2.71 11.32Z" fill="#ffffff" data-fill-palette-color="accent"></path><circle cx="45.03" cy="28.31" r="2.4" fill="#ffffff" data-fill-palette-color="accent"></circle><circle cx="55.59" cy="28.31" r="2.4" fill="#ffffff" data-fill-palette-color="accent"></circle><path d="M55.63 37.37a1.5 1.5 0 0 0-3 0 2.69 2.69 0 0 1-5.38 0 1.5 1.5 0 0 0-3 0 5.69 5.69 0 0 0 11.38 0Z" fill="#ffffff" data-fill-palette-color="accent"></path><path d="M42.92 80.31a1.53 1.53 0 0 0 1.06 0.44A1.5 1.5 0 0 0 45 78.19L38.3 71.45 45 64.79a1.5 1.5 0 1 0-2.12-2.12l-7.72 7.72a1.51 1.51 0 0 0 0 2.12Z" fill="#ffffff" data-fill-palette-color="accent"></path><path d="M55.31 64.79L62 71.45l-6.74 6.74a1.5 1.5 0 0 0 1.06 2.56 1.49 1.49 0 0 0 1.06-0.44l7.8-7.8a1.52 1.52 0 0 0 0.44-1.06 1.5 1.5 0 0 0-0.44-1.06l-7.71-7.72a1.5 1.5 0 0 0-2.12 2.12Z" fill="#ffffff" data-fill-palette-color="accent"></path><path d="M46.37 82.64a1.61 1.61 0 0 0 0.48 0.08 1.5 1.5 0 0 0 1.42-1l6.56-19.41a1.5 1.5 0 1 0-2.84-1L45.43 80.74A1.51 1.51 0 0 0 46.37 82.64Z" fill="#ffffff" data-fill-palette-color="accent"></path></svg></g></svg></g><g><rect width="56.469697516053856" height="3.8683552600536197" y="86.40559297691092" x="135.53030248394614" fill="#ffffff" data-fill-palette-color="accent"></rect><rect width="56.469697516053856" height="3.8683552600536197" y="86.40559297691092" x="2.842170943040401e-14" fill="#ffffff" data-fill-palette-color="accent"></rect><rect width="56.469697516053856" height="3.8683552600536197" y="78.66888245680369" x="135.53030248394614" fill="#ffffff" data-fill-palette-color="accent"></rect><rect width="56.469697516053856" height="3.8683552600536197" y="78.66888245680369" x="2.842170943040401e-14" fill="#ffffff" data-fill-palette-color="accent"></rect></g></svg></g></svg></g></svg></g><defs></defs></svg><rect width="320" height="360" fill="none" stroke="none" visibility="hidden"></rect></g></svg></g></svg>