<svg xmlns="http://www.w3.org/2000/svg" version="1.1" xmlns:xlink="http://www.w3.org/1999/xlink" xmlns:svgjs="http://svgjs.dev/svgjs" width="2000" height="343" viewBox="0 0 2000 343"><g transform="matrix(1,0,0,1,-1.212116791120593,-0.1081227966235474)"><svg viewBox="0 0 396 68" data-background-color="#ffffff" preserveAspectRatio="xMidYMid meet" height="343" width="2000" xmlns="http://www.w3.org/2000/svg" xmlns:xlink="http://www.w3.org/1999/xlink"><g id="tight-bounds" transform="matrix(1,0,0,1,0.23999919302923445,0.021436240758845315)"><svg viewBox="0 0 395.52 67.95712724188542" height="67.95712724188542" width="395.52"><g><svg viewBox="0 0 395.52 67.95712724188542" height="67.95712724188542" width="395.52"><g transform="matrix(1,0,0,1,0,42.00023094021754)"><svg viewBox="0 0 395.52 25.95689630166787" height="25.95689630166787" width="395.52"><g><svg viewBox="0 0 395.52 25.95689630166787" height="25.95689630166787" width="395.52"><g><svg viewBox="0 0 395.52 25.95689630166787" height="25.95689630166787" width="395.52"><g transform="matrix(1,0,0,1,0,0)"><svg width="395.52" viewBox="4.150000095367432 -35.599998474121094 551.5599975585938 36.19999694824219" height="25.95689630166787" data-palette-color="#5c5cfc"><path d="M4.15 0L4.15-35 20.05-35Q25.75-35 30.13-32.83 34.5-30.65 36.93-26.7 39.35-22.75 39.35-17.5L39.35-17.5Q39.35-12.25 36.93-8.3 34.5-4.35 30.13-2.18 25.75 0 20.05 0L20.05 0 4.15 0ZM12.25-6.65L19.65-6.65Q24.9-6.65 28.03-9.58 31.15-12.5 31.15-17.5L31.15-17.5Q31.15-22.5 28.03-25.43 24.9-28.35 19.65-28.35L19.65-28.35 12.25-28.35 12.25-6.65ZM45.45 0L45.45-35 53.55-35 53.55 0 45.45 0ZM61.85 0L61.85-35 69.95-35 69.95-6.6 87.5-6.6 87.5 0 61.85 0ZM103.34 0.6Q99.19 0.6 95.32-0.53 91.44-1.65 89.09-3.45L89.09-3.45 91.84-9.55Q94.09-7.9 97.19-6.9 100.29-5.9 103.39-5.9L103.39-5.9Q106.84-5.9 108.49-6.93 110.14-7.95 110.14-9.65L110.14-9.65Q110.14-10.9 109.17-11.73 108.19-12.55 106.67-13.05 105.14-13.55 102.54-14.15L102.54-14.15Q98.54-15.1 95.99-16.05 93.44-17 91.62-19.1 89.79-21.2 89.79-24.7L89.79-24.7Q89.79-27.75 91.44-30.23 93.09-32.7 96.42-34.15 99.74-35.6 104.54-35.6L104.54-35.6Q107.89-35.6 111.09-34.8 114.29-34 116.69-32.5L116.69-32.5 114.19-26.35Q109.34-29.1 104.49-29.1L104.49-29.1Q101.09-29.1 99.47-28 97.84-26.9 97.84-25.1L97.84-25.1Q97.84-23.3 99.72-22.43 101.59-21.55 105.44-20.7L105.44-20.7Q109.44-19.75 111.99-18.8 114.54-17.85 116.37-15.8 118.19-13.75 118.19-10.25L118.19-10.25Q118.19-7.25 116.52-4.78 114.84-2.3 111.49-0.85 108.14 0.6 103.34 0.6L103.34 0.6ZM147.74-35L155.84-35 155.84 0 147.74 0 147.74-14.35 131.84-14.35 131.84 0 123.74 0 123.74-35 131.84-35 131.84-21.2 147.74-21.2 147.74-35ZM190.29 0L187.19-7.5 170.94-7.5 167.84 0 159.54 0 175.14-35 183.14-35 198.79 0 190.29 0ZM173.54-13.65L184.64-13.65 179.09-27.05 173.54-13.65ZM226.54-35L234.54-35 234.54 0 227.89 0 210.44-21.25 210.44 0 202.44 0 202.44-35 209.14-35 226.54-13.75 226.54-35ZM283.43-28.5L265.08-28.5 265.08-19.25 281.28-19.25 281.28-12.75 265.08-12.75 265.08 0 256.98 0 256.98-35 283.43-35 283.43-28.5ZM296.98-6.5L316.03-6.5 316.03 0 288.93 0 288.93-35 315.38-35 315.38-28.5 296.98-28.5 296.98-20.9 313.23-20.9 313.23-14.6 296.98-14.6 296.98-6.5ZM353.48 0L344.78 0 338.03-9.75 337.63-9.75 330.58-9.75 330.58 0 322.48 0 322.48-35 337.63-35Q342.28-35 345.7-33.45 349.13-31.9 350.98-29.05 352.83-26.2 352.83-22.3L352.83-22.3Q352.83-18.4 350.95-15.58 349.08-12.75 345.63-11.25L345.63-11.25 353.48 0ZM344.63-22.3Q344.63-25.25 342.73-26.83 340.83-28.4 337.18-28.4L337.18-28.4 330.58-28.4 330.58-16.2 337.18-16.2Q340.83-16.2 342.73-17.8 344.63-19.4 344.63-22.3L344.63-22.3ZM383.32-35L391.32-35 391.32 0 384.67 0 367.22-21.25 367.22 0 359.22 0 359.22-35 365.92-35 383.32-13.75 383.32-35ZM425.77 0L422.67-7.5 406.42-7.5 403.32 0 395.02 0 410.62-35 418.62-35 434.27 0 425.77 0ZM409.02-13.65L420.12-13.65 414.57-27.05 409.02-13.65ZM462.02-35L470.02-35 470.02 0 463.37 0 445.92-21.25 445.92 0 437.92 0 437.92-35 444.62-35 462.02-13.75 462.02-35ZM478.32 0L478.32-35 494.22-35Q499.92-35 504.29-32.83 508.67-30.65 511.09-26.7 513.52-22.75 513.52-17.5L513.52-17.5Q513.52-12.25 511.09-8.3 508.67-4.35 504.29-2.18 499.92 0 494.22 0L494.22 0 478.32 0ZM486.42-6.65L493.82-6.65Q499.07-6.65 502.19-9.58 505.32-12.5 505.32-17.5L505.32-17.5Q505.32-22.5 502.19-25.43 499.07-28.35 493.82-28.35L493.82-28.35 486.42-28.35 486.42-6.65ZM536.56 0.6Q531.11 0.6 526.74-1.75 522.36-4.1 519.89-8.22 517.41-12.35 517.41-17.5L517.41-17.5Q517.41-22.65 519.89-26.78 522.36-30.9 526.74-33.25 531.11-35.6 536.56-35.6L536.56-35.6Q542.01-35.6 546.36-33.25 550.71-30.9 553.21-26.78 555.71-22.65 555.71-17.5L555.71-17.5Q555.71-12.35 553.21-8.22 550.71-4.1 546.36-1.75 542.01 0.6 536.56 0.6L536.56 0.6ZM536.56-6.3Q539.66-6.3 542.16-7.73 544.66-9.15 546.09-11.7 547.51-14.25 547.51-17.5L547.51-17.5Q547.51-20.75 546.09-23.3 544.66-25.85 542.16-27.28 539.66-28.7 536.56-28.7L536.56-28.7Q533.46-28.7 530.96-27.28 528.46-25.85 527.04-23.3 525.61-20.75 525.61-17.5L525.61-17.5Q525.61-14.25 527.04-11.7 528.46-9.15 530.96-7.73 533.46-6.3 536.56-6.3L536.56-6.3Z" opacity="1" transform="matrix(1,0,0,1,0,0)" fill="#5c5cfc" class="undefined-text-0" data-fill-palette-color="primary" id="text-0"></path></svg></g></svg></g></svg></g></svg></g><g transform="matrix(1,0,0,1,163.1078277220029,0)"><svg viewBox="0 0 69.30434455599419 35.872430688905" height="35.872430688905" width="69.30434455599419"><g><svg xmlns="http://www.w3.org/2000/svg" xmlns:xlink="http://www.w3.org/1999/xlink" version="1.1" x="8" y="0" viewBox="5.900000095367432 20.184886932373047 89.62474822998047 60.31511306762695" enable-background="new 0 0 100 100" xml:space="preserve" height="35.872430688905" width="53.30434455599419" class="icon-icon-0" data-fill-palette-color="accent" id="icon-0"><path d="M31.6 33.4c4-1.8 3-4.3 4.7-5.3 1.2-0.6 2 0.3 2.7 0.5-0.1 0.4-0.1 0.9-0.2 1.3-0.3 5.7 4 10.5 9.7 10.8 5.7 0.3 10.5-4 10.8-9.7 0.3-5.7-4-10.5-9.7-10.8-3.8-0.2-7.1 1.6-9.1 4.5-0.5-1-1.5-2.6-3.1-3.1-2.9-0.9-6.2 0.4-7.9 2.7-1.7 2.3-1.8 6.8-6.6 7.8C20.7 32.8 28 35 31.6 33.4z" fill="#0080ff" data-fill-palette-color="accent"></path><path d="M71.8 67.4c0-3-2.3-4.4-5.2-4.4H49.9l-6.7-18.4 0 0c-1-3.2-4-5.6-7.6-5.6-1.3 0-2.5 0.3-3.6 0.9l0 0C17.5 47.2 9.1 60.6 5.9 80.3l19 0c0.5-8.3 2-18 8.8-23.8l7.8 11.7 0 0c0.9 1.7 2.7 3 4.7 3h20.3C69.6 71.2 71.8 70.4 71.8 67.4z" fill="#0080ff" data-fill-palette-color="accent"></path><path d="M84.7 80.5H67.5c-1.9 0-3.5-1.6-3.5-3.5s1.6-3.5 3.5-3.5h14.7L88.7 55c0.6-1.8 2.6-2.8 4.5-2.1 1.8 0.6 2.8 2.6 2.1 4.5L88 78.2C87.5 79.6 86.2 80.5 84.7 80.5z" fill="#0080ff" data-fill-palette-color="accent"></path></svg></g></svg></g><g><rect width="163.1078277220029" height="2.3408196960013923" y="32.53161099290361" x="232.4121722779971" fill="#0080ff" data-fill-palette-color="accent"></rect><rect width="163.1078277220029" height="2.3408196960013923" y="32.53161099290361" x="0" fill="#0080ff" data-fill-palette-color="accent"></rect><rect width="163.1078277220029" height="2.3408196960013923" y="27.849971600900822" x="232.4121722779971" fill="#0080ff" data-fill-palette-color="accent"></rect><rect width="163.1078277220029" height="2.3408196960013923" y="27.849971600900822" x="0" fill="#0080ff" data-fill-palette-color="accent"></rect></g></svg></g><defs></defs></svg><rect width="395.52" height="67.95712724188542" fill="none" stroke="none" visibility="hidden"></rect></g></svg></g></svg>